<svg xmlns="http://www.w3.org/2000/svg" viewBox="0 0 160 40">
  <defs>
    <linearGradient id="logoGrad" x1="0%" y1="0%" x2="100%" y2="100%">
      <stop offset="0%" stop-color="#6366F1" />
      <stop offset="100%" stop-color="#8B5CF6" />
    </linearGradient>
  </defs>
  <g transform="translate(4, 4)">
    <path d="M4 4h20a3 3 0 013 3v11a3 3 0 01-3 3H12l-5 4v-4H4a3 3 0 01-3-3V7a3 3 0 013-3z" fill="none" stroke="url(#logoGrad)" stroke-width="2.2" stroke-linejoin="round"/>
    <g stroke="url(#logoGrad)" stroke-width="1.4" stroke-linecap="round">
      <line x1="14" y1="8.5" x2="9.5" y2="15.5" />
      <line x1="14" y1="8.5" x2="18.5" y2="15.5" />
      <line x1="9.5" y1="15.5" x2="18.5" y2="15.5" />
    </g>
    <circle cx="14" cy="8.5" r="2.2" fill="url(#logoGrad)" />
    <circle cx="9.5" cy="15.5" r="2.2" fill="url(#logoGrad)" />
    <circle cx="18.5" cy="15.5" r="2.2" fill="url(#logoGrad)" />
  </g>
  <text x="44" y="27" font-family="'Plus Jakarta Sans', sans-serif" font-weight="700" font-size="22">
    <tspan fill="url(#logoGrad)">Neuro</tspan><tspan fill="#111827">Chat</tspan>
  </text>
</svg>
